PathFileType	4	(X/Y/Z)	C:/Users/beibeiliu/ov580/test_trc/User3\out3_training_dense_left.trc
DataRate	CameraRate	NumFrames	NumMarkers	Units	OrigDataRate	OrigDataStartFrame	OrigNumFrames
120	120	8	19	mm	120	126	500
Frame#	Time	ThumbCMC			ThumbMCP			ThumbIP			ThumbTip			IndexMCP			IndexPIP			IndexTip			MiddleMCP			MiddlePIP			MiddleTip			RingMCP			RingPIP			RingTip			PinkyMCP			PinkyPIP			PinkyTip			BackHand1			BackHand2			BackHand3	
		X0	Y0	Z0	X1	Y1	Z1	X2	Y2	Z2	X3	Y3	Z3	X4	Y4	Z4	X5	Y5	Z5	X6	Y6	Z6	X7	Y7	Z7	X8	Y8	Z8	X9	Y9	Z9	X10	Y10	Z10	X11	Y11	Z11	X12	Y12	Z12	X13	Y13	Z13	X14	Y14	Z14	X15	Y15	Z15	X16	Y16	Z16	X17	Y17	Z17	X18	Y18	Z18	
125	1.04167	-202.737	40.5513	14.668	-191.537	69.1693	-4.22777	-167.898	82.8619	-22.1031	-140.556	78.7209	-24.9369	-178.823	28.4276	-54.9897	-169.878	48.3337	-80.1225	-159.376	80.114	-74.6246	-151.545	44.5239	-50.4952	-146.398	71.8603	-37.054	-161.254	55.3127	-4.08457	-135.125	43.5401	-28.9166	-141.839	69.9621	-9.79605	-156.712	50.7355	13.5666	-124.565	39.621	-12.2982	-135.905	61.4429	3.1388	-150.023	42.6097	22.1588	-153.517	-2.90643	-0.432609	-164.089	-9.84425	28.3384	-190.817	3.6383	8.0776	
126	1.05	-202.263	39.4231	17.4061	-189.825	64.5796	-0.816461	-165.03	80.2278	-22.4436	-138.505	74.4512	-22.2965	-180.921	23.8847	-57.4164	-175.269	38.1706	-81.3268	-160.887	66.2527	-92.0452	-151.901	35.6012	-46.1087	-148.816	68.9108	-41.8881	-162.328	58.459	-4.87848	-134.944	44.2032	-28.0286	-139.233	65.4498	-9.9288	-156.177	51.3818	13.7471	-122.866	36.9194	-11.2386	-134.777	58.7818	1.09972	-150.149	38.9983	21.4338	-155.163	-6.41509	-0.578353	-165.078	-10.6527	35.0228	-188.846	-0.788719	8.30279	
127	1.05833	-202.27	36.9978	19.2503	-189.83	67.2284	-0.416278	-164.223	76.1685	-17.2824	-133.588	71.2817	-21.3885	-179.636	21.0368	-54.2448	-178.513	31.5673	-78.6933	-167.198	50.8246	-101.188	-153.366	37.6294	-48.1092	-146.905	66.6765	-38.202	-159.635	55.4636	-1.9852	-136.573	40.807	-26.6881	-136.591	63.1337	-8.84443	-159.406	48.6868	15.2028	-122.765	35.6487	-9.13062	-131.78	56.4729	7.93052	-150.831	35.7569	22.8647	-157.638	-8.01154	5.84742	-164.623	-14.1413	32.2299	-187.839	-2.32386	9.75288	
128	1.06667	-200.941	35.9611	21.1708	-187.568	65.0246	0.795766	-161.434	75.0157	-16.951	-135.463	71.9596	-18.4542	-180.172	18.6585	-49.7218	-178.64	27.1665	-78.1977	-176.645	38.7592	-98.9228	-149.658	34.5187	-46.5649	-145.231	65.3945	-40.3444	-155.515	56.7781	-3.41468	-134.115	39.7154	-25.7322	-135.062	62.3298	-10.0106	-157.149	48.4167	16.13	-124.758	31.5742	-8.40476	-133.032	54.7268	9.09175	-153.284	32.5107	21.4867	-155.175	-8.37632	5.52381	-164.41	-15.9279	37.039	-191.603	-3.25073	14.0688	
129	1.075	-200.255	35.9237	21.6852	-184.246	62.7688	1.84897	-157.346	72.4451	-17.573	-135.794	68.0632	-16.4552	-183.936	18.292	-47.6037	-181.181	24.5351	-78.3101	-178.946	30.7519	-98.4641	-147.974	28.4186	-43.9606	-143.08	61.7057	-41.1112	-153.5	58.8172	-4.00493	-133.038	35.8049	-24.4079	-132.668	60.5734	-9.10374	-153.334	49.8671	16.2268	-121.181	30.2124	-7.09991	-133.353	53.1872	6.49594	-153.871	33.8245	22.6448	-156.105	-10.9338	7.3685	-166.788	-16.5836	36.9223	-191.946	-2.24731	12.6814	
130	1.08333	-198.263	34.5434	20.6262	-182.21	61.6363	-0.934624	-155.95	71.5947	-16.245	-130.614	66.8391	-18.4518	-184.502	16.2268	-46.617	-180.692	19.1286	-75.3213	-176.68	24.4103	-100.65	-150.862	26.796	-45.7424	-141.066	57.7758	-44.7572	-152.209	60.638	-7.5826	-132.638	28.5667	-23.9354	-135.455	60.5691	-10.7702	-153.93	50.1424	16.0273	-123.234	29.7269	-8.05981	-131.817	51.2035	4.5075	-150.742	35.3338	23.6431	-153.863	-13.454	5.4116	-164.389	-16.1211	38.1049	-191.773	-4.4966	16.4718	
131	1.09167	-196.747	32.7386	24.2391	-181.03	59.395	2.4625	-157.618	71.3066	-13.5897	-130.31	65.6061	-15.7253	-181.815	14.0602	-48.1677	-181.181	16.9681	-71.3559	-174.426	20.6199	-96.3629	-148.343	23.8346	-46.6196	-139.593	55.3467	-46.0721	-148.976	59.6473	-6.94158	-131.869	29.3421	-23.7608	-129.492	58.0876	-10.8305	-147.225	51.417	15.9667	-123.921	26.7348	-7.89312	-128.296	50.4923	6.03599	-149.317	37.122	27.8858	-152.597	-14.0541	10.6269	-166.086	-18.6344	38.5209	-189.53	-5.85005	18.3499	
132	1.1	-196.889	31.7933	23.4111	-180.361	60.8439	2.20554	-155.537	69.621	-14.7009	-130.715	66.3425	-15.883	-179.624	12.1861	-45.525	-177.532	14.4941	-72.162	-175.694	19.4121	-95.7739	-147.849	20.4525	-46.4564	-136.535	50.3509	-48.1697	-146.751	61.3548	-10.0502	-134.579	28.998	-26.0156	-129.786	56.4791	-11.3021	-149.808	52.6738	13.3067	-123.261	25.326	-7.05499	-128.888	50.5605	5.14783	-147.834	38.7757	26.3182	-154.454	-12.3027	9.43082	-167.191	-18.9795	43.4813	-190.416	-6.52455	13.6674	
